PathFileType	4	(X/Y/Z)	 s02c0403.trc
DataRate	CameraRate	NumFrames	NumMarkers	Units	OrigDataRate	OrigDataStartFrame	OrigNumFrames
200	200	4	51	mm	200	1001	2000
Frame#	Time	racr			lacr			c7			jug			rlel			rdr			llel			ldr			s2			lic			ric			lasi			rasi			rpsi			lpsi			rgt			lgt			rth1			rth2			rth3			rth4			rlfc			rmfc			rsh1			rsh2			rsh3			rsh4			rlmal			rmmal			rcal			rtoe			rmt5			rmt1			lth1			lth2			lth4			lth3			llfc			lmfc			lsh1			lsh2			lsh3			lsh4			llmal			lmmal			lcal			ltoe			lmt5			SBIKE			LBIKE			RBIKE			
		X1	Y1	Z1	X2	Y2	Z2	X3	Y3	Z3	X4	Y4	Z4	X5	Y5	Z5	X6	Y6	Z6	X7	Y7	Z7	X8	Y8	Z8	X9	Y9	Z9	X10	Y10	Z10	X11	Y11	Z11	X12	Y12	Z12	X13	Y13	Z13	X14	Y14	Z14	X15	Y15	Z15	X16	Y16	Z16	X17	Y17	Z17	X18	Y18	Z18	X19	Y19	Z19	X20	Y20	Z20	X21	Y21	Z21	X22	Y22	Z22	X23	Y23	Z23	X24	Y24	Z24	X25	Y25	Z25	X26	Y26	Z26	X27	Y27	Z27	X28	Y28	Z28	X29	Y29	Z29	X30	Y30	Z30	X31	Y31	Z31	X32	Y32	Z32	X33	Y33	Z33	X34	Y34	Z34	X35	Y35	Z35	X36	Y36	Z36	X37	Y37	Z37	X38	Y38	Z38	X39	Y39	Z39	X40	Y40	Z40	X41	Y41	Z41	X42	Y42	Z42	X43	Y43	Z43	X44	Y44	Z44	X45	Y45	Z45	X46	Y46	Z46	X47	Y47	Z47	X48	Y48	Z48	X49	Y49	Z49	X50	Y50	Z50	X51	Y51	Z51	
1001	5.0050	782.519061	1173.233484	-88.898560	740.456145	1164.787548	-440.980734	777.532153	1222.993233	-276.528949	NaN	NaN	NaN	597.154014	994.772219	-8.475282	705.588506	873.099306	-122.465351	545.654503	1018.400776	-586.106890	690.759577	895.999668	-493.674327	233.079154	1220.868134	-238.223051	351.062284	1195.508692	-410.636532	344.686480	1166.195601	-96.319014	389.241374	1149.748534	-393.085571	389.278823	1131.915089	-130.902086	257.523132	1243.953939	-197.176294	263.410521	1252.584112	-279.771670	297.434576	1079.263265	-70.073247	287.465686	1121.501373	-424.697087	362.751564	997.371807	-76.353514	418.896312	929.823659	-87.201936	438.318916	846.313952	-76.632699	445.748941	943.178467	-110.349969	459.971830	711.329008	-124.178908	441.238389	707.585480	-233.141262	390.247504	625.033971	-110.222223	336.886932	554.425200	-130.754770	261.438527	515.045171	-123.698032	347.217500	547.742462	-168.255217	160.006118	443.267706	-128.883550	184.334862	458.629344	-209.954026	83.860903	475.062617	-177.601498	228.176897	227.341967	-190.964930	158.631601	308.383420	-128.785871	183.538619	298.127523	-236.741484	385.089679	1025.822746	-452.958642	452.009536	970.682612	-458.099263	479.902810	989.697868	-445.268187	482.596900	888.018812	-466.820158	540.786018	801.087606	-453.660516	549.671187	763.382334	-351.195256	509.317619	700.680568	-478.957374	492.693442	616.259557	-468.219908	433.529654	547.877789	-473.849743	510.316643	609.121663	-432.006512	368.656268	456.991488	-464.504493	383.931944	446.276980	-387.833372	294.871204	410.497762	-430.021957	575.989750	346.649676	-441.789621	466.841749	346.126235	-500.764408	-125.911003	872.208036	-308.243167	37.250726	86.587786	-514.200362	33.912353	83.391514	-114.125875	
1002	5.0100	782.683866	1174.465817	-89.645822	740.141427	1165.421292	-442.048623	777.257243	1223.733429	-277.499959	NaN	NaN	NaN	597.502568	995.557892	-9.266594	705.851304	873.228426	-122.580207	545.151957	1018.308073	-586.275826	690.569069	896.130427	-493.853809	232.689907	1218.382790	-238.855227	350.768689	1192.108358	-409.657786	344.601757	1165.175460	-96.748872	389.015017	1146.700348	-391.320871	389.129605	1131.037305	-131.305122	257.161652	1241.642192	-197.958940	262.809315	1250.121524	-280.514440	298.577169	1077.748009	-69.876478	287.498632	1118.265275	-424.927572	365.125923	996.997167	-77.000234	422.296272	930.465992	-88.100205	443.294628	847.397001	-77.799462	448.886210	944.423148	-111.391885	466.428287	712.524777	-125.258032	446.783091	709.188091	-234.121186	395.340814	626.890908	-112.106071	340.679995	557.612999	-131.598616	264.768706	519.332468	-124.481388	350.609324	550.794449	-169.283539	161.665503	450.298965	-129.116845	184.923774	465.519043	-209.841418	85.970496	483.183486	-177.550833	227.173868	233.664982	-190.960523	158.617006	315.584461	-128.798225	183.549791	304.859683	-236.695898	384.500618	1021.688747	-453.412832	450.757578	965.669839	-458.565788	478.881074	984.397459	-445.900882	480.281073	882.645714	-467.145571	537.344688	795.273708	-454.081437	545.107780	757.432670	-352.131361	506.314895	694.660441	-479.376600	490.770674	610.033309	-468.625213	432.509586	540.888286	-474.171511	508.578381	603.174643	-432.451874	368.969592	449.332674	-464.709751	384.445631	438.765394	-387.807890	295.183487	403.221651	-430.226584	576.536373	338.723624	-441.877134	467.366490	338.370758	-500.822809	-125.922116	872.221541	-308.310601	37.231842	86.552786	-514.180879	33.557857	83.590765	-114.280236	
1003	5.0150	782.893986	1175.468527	-90.345294	739.889950	1166.010066	-442.965620	777.073692	1224.637610	-278.378493	NaN	NaN	NaN	597.768052	996.364797	-9.967445	705.992368	873.380099	-122.572399	544.544104	1018.220666	-586.353191	690.391321	896.271819	-494.048249	232.662347	1215.943491	-239.064316	349.214894	1187.295209	-409.032058	344.386517	1163.987174	-97.172242	388.784694	1143.542107	-389.485812	388.960051	1129.979307	-131.671359	256.736379	1239.015007	-198.841118	261.447913	1246.791260	-281.841873	299.199511	1076.193046	-69.372711	287.552456	1114.880207	-425.151588	367.347035	996.576930	-77.595331	425.514639	931.032715	-89.020509	447.715041	848.370978	-79.016592	451.519801	945.367365	-112.325994	472.671933	713.719399	-126.436204	452.239579	710.718346	-235.075508	400.619927	629.166199	-113.037901	344.393660	560.932611	-132.432274	267.699629	524.453355	-124.726601	354.094669	554.055933	-170.092074	163.539756	457.206522	-129.207459	186.459409	472.348567	-209.951498	88.034851	491.320730	-177.405560	226.575835	240.080646	-190.936171	158.914885	322.818863	-128.772750	183.669170	311.829717	-236.653382	383.935267	1017.386845	-453.775727	449.450390	960.569374	-458.979532	477.861986	979.004693	-446.413852	477.898493	876.980072	-467.928296	533.915466	789.414441	-454.270200	541.692609	751.465644	-352.666104	503.159558	688.573086	-479.689348	488.829770	603.618886	-469.098026	431.318805	533.848811	-474.452180	506.704280	597.046876	-432.896049	369.052855	441.715509	-464.861070	384.611784	431.246119	-387.952786	295.278798	396.303619	-430.968327	576.959774	331.257863	-442.526240	467.616446	330.581327	-500.851280	-125.920206	872.206078	-308.326208	37.250716	86.559079	-514.199856	33.893006	83.396115	-114.158873	
1004	5.0200	783.067134	1176.664569	-90.906732	739.668910	1166.696301	-443.886663	776.828263	1225.456898	-279.081930	NaN	NaN	NaN	598.035891	997.191046	-10.603708	706.127792	873.511841	-122.544020	543.977372	1018.225453	-586.347061	690.221771	896.340765	-494.268585	232.297174	1213.054071	-239.960997	348.992527	1183.694779	-407.971273	344.110587	1162.766779	-97.724527	388.554999	1140.295286	-387.606894	388.765518	1128.980913	-132.041504	256.221748	1236.051877	-199.796555	260.954457	1243.907054	-282.804125	300.072251	1074.592502	-69.535913	287.674636	1111.394845	-425.425401	369.564355	996.219530	-78.129199	428.984898	931.630894	-89.777527	452.620833	849.356118	-80.003234	454.127850	946.042421	-113.209780	478.876109	714.902326	-127.585087	457.659912	712.286579	-235.911053	405.930012	631.433897	-113.932212	348.211965	564.300666	-133.136131	271.326334	529.222457	-125.181831	357.581938	557.389561	-170.941015	165.593914	464.367147	-129.195098	188.567658	479.313650	-210.123486	90.336528	499.401663	-177.332277	226.353915	246.723989	-190.950294	159.591829	330.201025	-128.504655	183.994156	318.931055	-236.665886	383.420815	1013.021540	-454.227584	448.175646	955.272236	-459.293179	476.812767	973.482164	-446.824947	475.693789	871.336995	-467.795225	530.416759	783.613186	-454.523928	538.109724	745.529661	-353.141557	499.957755	682.223765	-479.957913	486.561874	597.207973	-469.376315	429.934850	526.782320	-474.663959	504.598093	591.104321	-433.198595	368.873010	434.189547	-464.955846	384.586807	423.500085	-388.474261	295.386771	389.234109	-431.836776	576.834267	322.746467	-442.009986	467.493169	322.861829	-500.832999	-125.926709	872.169972	-308.469228	37.242740	86.536451	-514.197741	33.910728	83.379503	-114.160875	
